<?xml version="1.0" encoding="UTF-8" standalone="no"?>
<!DOCTYPE svg PUBLIC "-//W3C//DTD SVG 1.1//EN"
 "http://www.w3.org/Graphics/SVG/1.1/DTD/svg11.dtd">
<!-- Generated by graphviz version 2.38.0 (20140413.2041)
 -->
<!-- Title: simple&#45;chat Pages: 1 -->
<svg width="100%" height="100%" xmlns="http://www.w3.org/2000/svg" xmlns:xlink="http://www.w3.org/1999/xlink">
<script xlink:href="https://www.cyberz.org/projects/SVGPan/SVGPan.js"/><g id="viewport" transform="scale(0.5,0.5) translate(0,0)"><g id="graph0" class="graph" transform="scale(1 1) rotate(0) translate(4 528)">
<title>simple&#45;chat</title>
<polygon fill="white" stroke="none" points="-4,4 -4,-528 1404.09,-528 1404.09,4 -4,4"/>
<g id="clust1" class="cluster"><title>cluster_L</title>
<polygon fill="none" stroke="black" points="8,-364 8,-516 524,-516 524,-364 8,-364"/>
</g>
<!-- L -->
<g id="node1" class="node"><title>L</title>
<polygon fill="#f8f8f8" stroke="black" points="515.813,-508 16.1874,-508 16.1874,-372 515.813,-372 515.813,-508"/>
<text text-anchor="start" x="24.3438" y="-478.4" font-family="Times,serif" font-size="32.00">File: simple&#45;chat</text>
<text text-anchor="start" x="24.3438" y="-446.4" font-family="Times,serif" font-size="32.00">Type: goroutine</text>
<text text-anchor="start" x="24.3438" y="-414.4" font-family="Times,serif" font-size="32.00">Time: Aug 14, 2015 at 6:23pm (KST)</text>
<text text-anchor="start" x="24.3438" y="-382.4" font-family="Times,serif" font-size="32.00">18 of 18 total ( &#160;100%)</text>
</g>
<!-- N1 -->
<g id="node2" class="node"><title>N1</title>
<g id="a_node2"><a xlink:title="encoding/gob.(*Decoder).compatibleType (16)">
<polygon fill="#f8f8f8" stroke="black" points="1400.17,-56 977.828,-56 977.828,-0 1400.17,-0 1400.17,-56"/>
<text text-anchor="middle" x="1189" y="-32.8" font-family="Times,serif" font-size="24.00">encoding/gob.(*Decoder).compatibleType</text>
<text text-anchor="middle" x="1189" y="-8.8" font-family="Times,serif" font-size="24.00">16(88.89%)</text>
</a>
</g>
</g>
<!-- N2 -->
<g id="node3" class="node"><title>N2</title>
<g id="a_node3"><a xlink:title="[simple&#45;chat] (3)">
<polygon fill="#f8f8f8" stroke="black" points="633.984,-322 554.016,-322 554.016,-278 633.984,-278 633.984,-322"/>
<text text-anchor="middle" x="594" y="-308.4" font-family="Times,serif" font-size="12.00">[simple&#45;chat]</text>
<text text-anchor="middle" x="594" y="-296.4" font-family="Times,serif" font-size="12.00">1(5.56%)</text>
<text text-anchor="middle" x="594" y="-284.4" font-family="Times,serif" font-size="12.00">of 3(16.67%)</text>
</a>
</g>
</g>
<!-- N4 -->
<g id="node5" class="node"><title>N4</title>
<g id="a_node5"><a xlink:title="encoding/gob.(*Decoder).compileDec (3)">
<polygon fill="#f8f8f8" stroke="black" points="819.118,-228 680.882,-228 680.882,-192 819.118,-192 819.118,-228"/>
<text text-anchor="middle" x="750" y="-211.6" font-family="Times,serif" font-size="8.00">encoding/gob.(*Decoder).compileDec</text>
<text text-anchor="middle" x="750" y="-203.6" font-family="Times,serif" font-size="8.00">0 of 3(16.67%)</text>
</a>
</g>
</g>
<!-- N2&#45;&gt;N4 -->
<g id="edge11" class="edge"><title>N2&#45;&gt;N4</title>
<g id="a_edge11"><a xlink:title="[simple&#45;chat] &#45;&gt; encoding/gob.(*Decoder).compileDec (1)">
<path fill="none" stroke="black" d="M631.366,-277.922C655.344,-264.396 686.431,-246.86 710.766,-233.132"/>
<polygon fill="black" stroke="black" points="712.744,-236.035 719.734,-228.073 709.304,-229.938 712.744,-236.035"/>
</a>
</g>
<g id="a_edge11&#45;label"><a xlink:title="[simple&#45;chat] &#45;&gt; encoding/gob.(*Decoder).compileDec (1)">
<text text-anchor="middle" x="691.25" y="-248.8" font-family="Times,serif" font-size="14.00"> 1</text>
</a>
</g>
</g>
<!-- N5 -->
<g id="node6" class="node"><title>N5</title>
<g id="a_node6"><a xlink:title="encoding/gob.(*Decoder).decodeMap (1)">
<polygon fill="#f8f8f8" stroke="black" points="662.785,-228 525.215,-228 525.215,-192 662.785,-192 662.785,-228"/>
<text text-anchor="middle" x="594" y="-211.6" font-family="Times,serif" font-size="8.00">encoding/gob.(*Decoder).decodeMap</text>
<text text-anchor="middle" x="594" y="-203.6" font-family="Times,serif" font-size="8.00">0 of 1(5.56%)</text>
</a>
</g>
</g>
<!-- N2&#45;&gt;N5 -->
<g id="edge12" class="edge"><title>N2&#45;&gt;N5</title>
<g id="a_edge12"><a xlink:title="[simple&#45;chat] &#45;&gt; encoding/gob.(*Decoder).decodeMap (1)">
<path fill="none" stroke="black" d="M594,-277.698C594,-265.855 594,-250.992 594,-238.304"/>
<polygon fill="black" stroke="black" points="597.5,-238.271 594,-228.271 590.5,-238.271 597.5,-238.271"/>
</a>
</g>
<g id="a_edge12&#45;label"><a xlink:title="[simple&#45;chat] &#45;&gt; encoding/gob.(*Decoder).decodeMap (1)">
<text text-anchor="middle" x="599.25" y="-248.8" font-family="Times,serif" font-size="14.00"> 1</text>
</a>
</g>
</g>
<!-- N3 -->
<g id="node4" class="node"><title>N3</title>
<g id="a_node4"><a xlink:title="encoding/gob.buildTypeInfo (18)">
<polygon fill="#f8f8f8" stroke="black" points="1265.3,-462 1112.7,-462 1112.7,-418 1265.3,-418 1265.3,-462"/>
<text text-anchor="middle" x="1189" y="-448.4" font-family="Times,serif" font-size="12.00">encoding/gob.buildTypeInfo</text>
<text text-anchor="middle" x="1189" y="-436.4" font-family="Times,serif" font-size="12.00">1(5.56%)</text>
<text text-anchor="middle" x="1189" y="-424.4" font-family="Times,serif" font-size="12.00">of 18(100%)</text>
</a>
</g>
</g>
<!-- N3&#45;&gt;N1 -->
<g id="edge8" class="edge"><title>N3&#45;&gt;N1</title>
<g id="a_edge8"><a xlink:title="encoding/gob.buildTypeInfo &#45;&gt; encoding/gob.(*Decoder).compatibleType (2)">
<path fill="none" stroke="black" d="M1214.07,-417.879C1240.7,-392.939 1279,-348.767 1279,-301 1279,-301 1279,-301 1279,-123 1279,-98.5849 1262.96,-78.0326 1244.43,-62.4324"/>
<polygon fill="black" stroke="black" points="1246.38,-59.5167 1236.37,-56.053 1242.04,-65.0047 1246.38,-59.5167"/>
</a>
</g>
<g id="a_edge8&#45;label"><a xlink:title="encoding/gob.buildTypeInfo &#45;&gt; encoding/gob.(*Decoder).compatibleType (2)">
<text text-anchor="middle" x="1284.25" y="-205.8" font-family="Times,serif" font-size="14.00"> 2</text>
</a>
</g>
</g>
<!-- N3&#45;&gt;N2 -->
<g id="edge7" class="edge"><title>N3&#45;&gt;N2</title>
<g id="a_edge7"><a xlink:title="encoding/gob.buildTypeInfo &#45;&gt; [simple&#45;chat] (2)">
<path fill="none" stroke="black" d="M1112.27,-427.385C1007.47,-410.457 814.09,-375.422 643.776,-321.986"/>
<polygon fill="black" stroke="black" points="644.732,-318.617 634.142,-318.935 642.619,-325.291 644.732,-318.617"/>
</a>
</g>
<g id="a_edge7&#45;label"><a xlink:title="encoding/gob.buildTypeInfo &#45;&gt; [simple&#45;chat] (2)">
<text text-anchor="middle" x="751.25" y="-342.8" font-family="Times,serif" font-size="14.00"> 2</text>
</a>
</g>
</g>
<!-- N8 -->
<g id="node9" class="node"><title>N8</title>
<g id="a_node9"><a xlink:title="encoding/gob.decUint8 (1)">
<polygon fill="#f8f8f8" stroke="black" points="893.371,-318 802.629,-318 802.629,-282 893.371,-282 893.371,-318"/>
<text text-anchor="middle" x="848" y="-301.6" font-family="Times,serif" font-size="8.00">encoding/gob.decUint8</text>
<text text-anchor="middle" x="848" y="-293.6" font-family="Times,serif" font-size="8.00">0 of 1(5.56%)</text>
</a>
</g>
</g>
<!-- N3&#45;&gt;N8 -->
<g id="edge15" class="edge"><title>N3&#45;&gt;N8</title>
<g id="a_edge15"><a xlink:title="encoding/gob.buildTypeInfo &#45;&gt; encoding/gob.decUint8 (1)">
<path fill="none" stroke="black" d="M1136.84,-417.891C1072.51,-391.857 963.83,-347.875 899.709,-321.926"/>
<polygon fill="black" stroke="black" points="900.781,-318.584 890.198,-318.077 898.155,-325.073 900.781,-318.584"/>
</a>
</g>
<g id="a_edge15&#45;label"><a xlink:title="encoding/gob.buildTypeInfo &#45;&gt; encoding/gob.decUint8 (1)">
<text text-anchor="middle" x="982.25" y="-342.8" font-family="Times,serif" font-size="14.00"> 1</text>
</a>
</g>
</g>
<!-- N9 -->
<g id="node10" class="node"><title>N9</title>
<g id="a_node10"><a xlink:title="encoding/gob.encFloat (1)">
<polygon fill="#f8f8f8" stroke="black" points="1000.59,-318 911.406,-318 911.406,-282 1000.59,-282 1000.59,-318"/>
<text text-anchor="middle" x="956" y="-301.6" font-family="Times,serif" font-size="8.00">encoding/gob.encFloat</text>
<text text-anchor="middle" x="956" y="-293.6" font-family="Times,serif" font-size="8.00">0 of 1(5.56%)</text>
</a>
</g>
</g>
<!-- N3&#45;&gt;N9 -->
<g id="edge16" class="edge"><title>N3&#45;&gt;N9</title>
<g id="a_edge16"><a xlink:title="encoding/gob.buildTypeInfo &#45;&gt; encoding/gob.encFloat (1)">
<path fill="none" stroke="black" d="M1153.36,-417.891C1110.18,-392.32 1037.78,-349.434 993.698,-323.328"/>
<polygon fill="black" stroke="black" points="995.398,-320.267 985.01,-318.182 991.831,-326.289 995.398,-320.267"/>
</a>
</g>
<g id="a_edge16&#45;label"><a xlink:title="encoding/gob.buildTypeInfo &#45;&gt; encoding/gob.encFloat (1)">
<text text-anchor="middle" x="1049.25" y="-342.8" font-family="Times,serif" font-size="14.00"> 1</text>
</a>
</g>
</g>
<!-- N10 -->
<g id="node11" class="node"><title>N10</title>
<g id="a_node11"><a xlink:title="encoding/gob.overflow (1)">
<polygon fill="#f8f8f8" stroke="black" points="1108.99,-318 1019.01,-318 1019.01,-282 1108.99,-282 1108.99,-318"/>
<text text-anchor="middle" x="1064" y="-301.6" font-family="Times,serif" font-size="8.00">encoding/gob.overflow</text>
<text text-anchor="middle" x="1064" y="-293.6" font-family="Times,serif" font-size="8.00">0 of 1(5.56%)</text>
</a>
</g>
</g>
<!-- N3&#45;&gt;N10 -->
<g id="edge17" class="edge"><title>N3&#45;&gt;N10</title>
<g id="a_edge17"><a xlink:title="encoding/gob.buildTypeInfo &#45;&gt; encoding/gob.overflow (1)">
<path fill="none" stroke="black" d="M1169.98,-417.684C1152.02,-397.585 1124.28,-366.653 1100,-340 1095.79,-335.374 1091.27,-330.459 1086.92,-325.732"/>
<polygon fill="black" stroke="black" points="1089.18,-323.015 1079.82,-318.041 1084.03,-327.763 1089.18,-323.015"/>
</a>
</g>
<g id="a_edge17&#45;label"><a xlink:title="encoding/gob.buildTypeInfo &#45;&gt; encoding/gob.overflow (1)">
<text text-anchor="middle" x="1117.25" y="-342.8" font-family="Times,serif" font-size="14.00"> 1</text>
</a>
</g>
</g>
<!-- N12 -->
<g id="node13" class="node"><title>N12</title>
<g id="a_node13"><a xlink:title="encoding/xml.(*Decoder).autoClose (2)">
<polygon fill="#f8f8f8" stroke="black" points="784.411,-318 651.589,-318 651.589,-282 784.411,-282 784.411,-318"/>
<text text-anchor="middle" x="718" y="-301.6" font-family="Times,serif" font-size="8.00">encoding/xml.(*Decoder).autoClose</text>
<text text-anchor="middle" x="718" y="-293.6" font-family="Times,serif" font-size="8.00">0 of 2(11.11%)</text>
</a>
</g>
</g>
<!-- N3&#45;&gt;N12 -->
<g id="edge9" class="edge"><title>N3&#45;&gt;N12</title>
<g id="a_edge9"><a xlink:title="encoding/gob.buildTypeInfo &#45;&gt; encoding/xml.(*Decoder).autoClose (2)">
<path fill="none" stroke="black" d="M1117.21,-417.966C1027.23,-391.603 874.146,-346.75 785.989,-320.92"/>
<polygon fill="black" stroke="black" points="786.936,-317.551 776.355,-318.098 784.967,-324.268 786.936,-317.551"/>
</a>
</g>
<g id="a_edge9&#45;label"><a xlink:title="encoding/gob.buildTypeInfo &#45;&gt; encoding/xml.(*Decoder).autoClose (2)">
<text text-anchor="middle" x="902.25" y="-342.8" font-family="Times,serif" font-size="14.00"> 2</text>
</a>
</g>
</g>
<!-- N14 -->
<g id="node15" class="node"><title>N14</title>
<g id="a_node15"><a xlink:title="encoding/xml.StartElement.Copy (8)">
<polygon fill="#f8f8f8" stroke="black" points="1250.59,-318 1127.41,-318 1127.41,-282 1250.59,-282 1250.59,-318"/>
<text text-anchor="middle" x="1189" y="-301.6" font-family="Times,serif" font-size="8.00">encoding/xml.StartElement.Copy</text>
<text text-anchor="middle" x="1189" y="-293.6" font-family="Times,serif" font-size="8.00">0 of 8(44.44%)</text>
</a>
</g>
</g>
<!-- N3&#45;&gt;N14 -->
<g id="edge1" class="edge"><title>N3&#45;&gt;N14</title>
<g id="a_edge1"><a xlink:title="encoding/gob.buildTypeInfo &#45;&gt; encoding/xml.StartElement.Copy (8)">
<path fill="none" stroke="black" stroke-width="3" d="M1189,-417.74C1189,-393.685 1189,-354.446 1189,-328.184"/>
<polygon fill="black" stroke="black" stroke-width="3" points="1192.5,-328.141 1189,-318.141 1185.5,-328.141 1192.5,-328.141"/>
</a>
</g>
<g id="a_edge1&#45;label"><a xlink:title="encoding/gob.buildTypeInfo &#45;&gt; encoding/xml.StartElement.Copy (8)">
<text text-anchor="middle" x="1194.25" y="-342.8" font-family="Times,serif" font-size="14.00"> 8</text>
</a>
</g>
</g>
<!-- N7 -->
<g id="node8" class="node"><title>N7</title>
<g id="a_node8"><a xlink:title="encoding/gob.(*Decoder).decodeValue (3)">
<polygon fill="#f8f8f8" stroke="black" points="927.336,-142 786.664,-142 786.664,-106 927.336,-106 927.336,-142"/>
<text text-anchor="middle" x="857" y="-125.6" font-family="Times,serif" font-size="8.00">encoding/gob.(*Decoder).decodeValue</text>
<text text-anchor="middle" x="857" y="-117.6" font-family="Times,serif" font-size="8.00">0 of 3(16.67%)</text>
</a>
</g>
</g>
<!-- N4&#45;&gt;N7 -->
<g id="edge5" class="edge"><title>N4&#45;&gt;N7</title>
<g id="a_edge5"><a xlink:title="encoding/gob.(*Decoder).compileDec &#45;&gt; encoding/gob.(*Decoder).decodeValue (3)">
<path fill="none" stroke="black" d="M771.911,-191.799C787.779,-179.342 809.423,-162.35 826.911,-148.621"/>
<polygon fill="black" stroke="black" points="829.414,-151.106 835.118,-142.178 825.091,-145.6 829.414,-151.106"/>
</a>
</g>
<g id="a_edge5&#45;label"><a xlink:title="encoding/gob.(*Decoder).compileDec &#45;&gt; encoding/gob.(*Decoder).decodeValue (3)">
<text text-anchor="middle" x="815.25" y="-162.8" font-family="Times,serif" font-size="14.00"> 3</text>
</a>
</g>
</g>
<!-- N6 -->
<g id="node7" class="node"><title>N6</title>
<g id="a_node7"><a xlink:title="encoding/gob.(*Decoder).decodeSlice (1)">
<polygon fill="#f8f8f8" stroke="black" points="754.118,-142 615.882,-142 615.882,-106 754.118,-106 754.118,-142"/>
<text text-anchor="middle" x="685" y="-125.6" font-family="Times,serif" font-size="8.00">encoding/gob.(*Decoder).decodeSlice</text>
<text text-anchor="middle" x="685" y="-117.6" font-family="Times,serif" font-size="8.00">0 of 1(5.56%)</text>
</a>
</g>
</g>
<!-- N5&#45;&gt;N6 -->
<g id="edge13" class="edge"><title>N5&#45;&gt;N6</title>
<g id="a_edge13"><a xlink:title="encoding/gob.(*Decoder).decodeMap &#45;&gt; encoding/gob.(*Decoder).decodeSlice (1)">
<path fill="none" stroke="black" d="M612.855,-191.595C626.243,-179.237 644.384,-162.492 659.125,-148.885"/>
<polygon fill="black" stroke="black" points="661.506,-151.45 666.48,-142.095 656.758,-146.306 661.506,-151.45"/>
</a>
</g>
<g id="a_edge13&#45;label"><a xlink:title="encoding/gob.(*Decoder).decodeMap &#45;&gt; encoding/gob.(*Decoder).decodeSlice (1)">
<text text-anchor="middle" x="650.25" y="-162.8" font-family="Times,serif" font-size="14.00"> 1</text>
</a>
</g>
</g>
<!-- N6&#45;&gt;N1 -->
<g id="edge14" class="edge"><title>N6&#45;&gt;N1</title>
<g id="a_edge14"><a xlink:title="encoding/gob.(*Decoder).decodeSlice &#45;&gt; encoding/gob.(*Decoder).compatibleType (1)">
<path fill="none" stroke="black" d="M751.703,-105.995C792.722,-95.8883 846.454,-83.2747 894.5,-74 924.515,-68.2058 956.369,-62.6885 987.612,-57.629"/>
<polygon fill="black" stroke="black" points="988.413,-61.0452 997.731,-56.0026 987.302,-54.1339 988.413,-61.0452"/>
</a>
</g>
<g id="a_edge14&#45;label"><a xlink:title="encoding/gob.(*Decoder).decodeSlice &#45;&gt; encoding/gob.(*Decoder).compatibleType (1)">
<text text-anchor="middle" x="899.25" y="-76.8" font-family="Times,serif" font-size="14.00"> 1</text>
</a>
</g>
</g>
<!-- N7&#45;&gt;N1 -->
<g id="edge6" class="edge"><title>N7&#45;&gt;N1</title>
<g id="a_edge6"><a xlink:title="encoding/gob.(*Decoder).decodeValue &#45;&gt; encoding/gob.(*Decoder).compatibleType (3)">
<path fill="none" stroke="black" d="M879.764,-105.987C895.272,-95.2152 916.69,-81.8785 937.5,-74 952.931,-68.1577 969.189,-63.0631 985.706,-58.6223"/>
<polygon fill="black" stroke="black" points="986.661,-61.9902 995.456,-56.0825 984.897,-55.2162 986.661,-61.9902"/>
</a>
</g>
<g id="a_edge6&#45;label"><a xlink:title="encoding/gob.(*Decoder).decodeValue &#45;&gt; encoding/gob.(*Decoder).compatibleType (3)">
<text text-anchor="middle" x="942.25" y="-76.8" font-family="Times,serif" font-size="14.00"> 3</text>
</a>
</g>
</g>
<!-- N8&#45;&gt;N1 -->
<g id="edge18" class="edge"><title>N8&#45;&gt;N1</title>
<g id="a_edge18"><a xlink:title="encoding/gob.decUint8 &#45;&gt; encoding/gob.(*Decoder).compatibleType (1)">
<path fill="none" stroke="black" d="M865.366,-281.828C900.991,-246.966 985.518,-166.105 1063,-106 1083.26,-90.2848 1089.22,-87.5245 1111,-74 1117.72,-69.8252 1124.84,-65.5417 1131.93,-61.3559"/>
<polygon fill="black" stroke="black" points="1134,-64.197 1140.86,-56.1215 1130.46,-58.1575 1134,-64.197"/>
</a>
</g>
<g id="a_edge18&#45;label"><a xlink:title="encoding/gob.decUint8 &#45;&gt; encoding/gob.(*Decoder).compatibleType (1)">
<text text-anchor="middle" x="1002.25" y="-162.8" font-family="Times,serif" font-size="14.00"> 1</text>
</a>
</g>
</g>
<!-- N9&#45;&gt;N1 -->
<g id="edge19" class="edge"><title>N9&#45;&gt;N1</title>
<g id="a_edge19"><a xlink:title="encoding/gob.encFloat &#45;&gt; encoding/gob.(*Decoder).compatibleType (1)">
<path fill="none" stroke="black" d="M966.506,-281.754C991.246,-242.024 1056.5,-142.231 1128,-74 1132.05,-70.1386 1136.43,-66.319 1140.93,-62.6339"/>
<polygon fill="black" stroke="black" points="1143.43,-65.1165 1149.1,-56.1657 1139.09,-59.6279 1143.43,-65.1165"/>
</a>
</g>
<g id="a_edge19&#45;label"><a xlink:title="encoding/gob.encFloat &#45;&gt; encoding/gob.(*Decoder).compatibleType (1)">
<text text-anchor="middle" x="1055.25" y="-162.8" font-family="Times,serif" font-size="14.00"> 1</text>
</a>
</g>
</g>
<!-- N10&#45;&gt;N1 -->
<g id="edge20" class="edge"><title>N10&#45;&gt;N1</title>
<g id="a_edge20"><a xlink:title="encoding/gob.overflow &#45;&gt; encoding/gob.(*Decoder).compatibleType (1)">
<path fill="none" stroke="black" d="M1068.04,-281.903C1077.92,-240.715 1103.79,-137.107 1121,-106 1129.36,-90.8793 1141.14,-76.1744 1152.54,-63.7365"/>
<polygon fill="black" stroke="black" points="1155.24,-65.9758 1159.56,-56.3016 1150.15,-61.1704 1155.24,-65.9758"/>
</a>
</g>
<g id="a_edge20&#45;label"><a xlink:title="encoding/gob.overflow &#45;&gt; encoding/gob.(*Decoder).compatibleType (1)">
<text text-anchor="middle" x="1105.25" y="-162.8" font-family="Times,serif" font-size="14.00"> 1</text>
</a>
</g>
</g>
<!-- N11 -->
<g id="node12" class="node"><title>N11</title>
<g id="a_node12"><a xlink:title="encoding/xml.(*Decoder).Token (1)">
<polygon fill="#f8f8f8" stroke="black" points="654.293,-458 533.707,-458 533.707,-422 654.293,-422 654.293,-458"/>
<text text-anchor="middle" x="594" y="-441.6" font-family="Times,serif" font-size="8.00">encoding/xml.(*Decoder).Token</text>
<text text-anchor="middle" x="594" y="-433.6" font-family="Times,serif" font-size="8.00">0 of 1(5.56%)</text>
</a>
</g>
</g>
<!-- N11&#45;&gt;N2 -->
<g id="edge21" class="edge"><title>N11&#45;&gt;N2</title>
<g id="a_edge21"><a xlink:title="encoding/xml.(*Decoder).Token &#45;&gt; [simple&#45;chat] (1)">
<path fill="none" stroke="black" d="M594,-421.801C594,-399.476 594,-360.102 594,-332.387"/>
<polygon fill="black" stroke="black" points="597.5,-332.033 594,-322.033 590.5,-332.033 597.5,-332.033"/>
</a>
</g>
<g id="a_edge21&#45;label"><a xlink:title="encoding/xml.(*Decoder).Token &#45;&gt; [simple&#45;chat] (1)">
<text text-anchor="middle" x="599.25" y="-342.8" font-family="Times,serif" font-size="14.00"> 1</text>
</a>
</g>
</g>
<!-- N12&#45;&gt;N4 -->
<g id="edge10" class="edge"><title>N12&#45;&gt;N4</title>
<g id="a_edge10"><a xlink:title="encoding/xml.(*Decoder).autoClose &#45;&gt; encoding/gob.(*Decoder).compileDec (2)">
<path fill="none" stroke="black" d="M724.322,-281.614C728.866,-269.119 735.077,-252.037 740.253,-237.804"/>
<polygon fill="black" stroke="black" points="743.672,-238.644 743.8,-228.05 737.093,-236.252 743.672,-238.644"/>
</a>
</g>
<g id="a_edge10&#45;label"><a xlink:title="encoding/xml.(*Decoder).autoClose &#45;&gt; encoding/gob.(*Decoder).compileDec (2)">
<text text-anchor="middle" x="742.25" y="-248.8" font-family="Times,serif" font-size="14.00"> 2</text>
</a>
</g>
</g>
<!-- N13 -->
<g id="node14" class="node"><title>N13</title>
<g id="a_node14"><a xlink:title="encoding/xml.EscapeText (8)">
<polygon fill="#f8f8f8" stroke="black" points="1238.25,-228 1139.75,-228 1139.75,-192 1238.25,-192 1238.25,-228"/>
<text text-anchor="middle" x="1189" y="-211.6" font-family="Times,serif" font-size="8.00">encoding/xml.EscapeText</text>
<text text-anchor="middle" x="1189" y="-203.6" font-family="Times,serif" font-size="8.00">0 of 8(44.44%)</text>
</a>
</g>
</g>
<!-- N15 -->
<g id="node16" class="node"><title>N15</title>
<g id="a_node16"><a xlink:title="encoding/xml.procInstEncoding (8)">
<polygon fill="#f8f8f8" stroke="black" points="1248.37,-142 1129.63,-142 1129.63,-106 1248.37,-106 1248.37,-142"/>
<text text-anchor="middle" x="1189" y="-125.6" font-family="Times,serif" font-size="8.00">encoding/xml.procInstEncoding</text>
<text text-anchor="middle" x="1189" y="-117.6" font-family="Times,serif" font-size="8.00">0 of 8(44.44%)</text>
</a>
</g>
</g>
<!-- N13&#45;&gt;N15 -->
<g id="edge2" class="edge"><title>N13&#45;&gt;N15</title>
<g id="a_edge2"><a xlink:title="encoding/xml.EscapeText &#45;&gt; encoding/xml.procInstEncoding (8)">
<path fill="none" stroke="black" stroke-width="3" d="M1189,-191.595C1189,-180.257 1189,-165.227 1189,-152.315"/>
<polygon fill="black" stroke="black" stroke-width="3" points="1192.5,-152.095 1189,-142.095 1185.5,-152.095 1192.5,-152.095"/>
</a>
</g>
<g id="a_edge2&#45;label"><a xlink:title="encoding/xml.EscapeText &#45;&gt; encoding/xml.procInstEncoding (8)">
<text text-anchor="middle" x="1194.25" y="-162.8" font-family="Times,serif" font-size="14.00"> 8</text>
</a>
</g>
</g>
<!-- N14&#45;&gt;N13 -->
<g id="edge3" class="edge"><title>N14&#45;&gt;N13</title>
<g id="a_edge3"><a xlink:title="encoding/xml.StartElement.Copy &#45;&gt; encoding/xml.EscapeText (8)">
<path fill="none" stroke="black" stroke-width="3" d="M1189,-281.614C1189,-269.24 1189,-252.369 1189,-238.22"/>
<polygon fill="black" stroke="black" stroke-width="3" points="1192.5,-238.05 1189,-228.05 1185.5,-238.05 1192.5,-238.05"/>
</a>
</g>
<g id="a_edge3&#45;label"><a xlink:title="encoding/xml.StartElement.Copy &#45;&gt; encoding/xml.EscapeText (8)">
<text text-anchor="middle" x="1194.25" y="-248.8" font-family="Times,serif" font-size="14.00"> 8</text>
</a>
</g>
</g>
<!-- N15&#45;&gt;N1 -->
<g id="edge4" class="edge"><title>N15&#45;&gt;N1</title>
<g id="a_edge4"><a xlink:title="encoding/xml.procInstEncoding &#45;&gt; encoding/gob.(*Decoder).compatibleType (8)">
<path fill="none" stroke="black" stroke-width="3" d="M1189,-105.759C1189,-94.6931 1189,-79.8885 1189,-66.2343"/>
<polygon fill="black" stroke="black" stroke-width="3" points="1192.5,-66.098 1189,-56.098 1185.5,-66.0981 1192.5,-66.098"/>
</a>
</g>
<g id="a_edge4&#45;label"><a xlink:title="encoding/xml.procInstEncoding &#45;&gt; encoding/gob.(*Decoder).compatibleType (8)">
<text text-anchor="middle" x="1194.25" y="-76.8" font-family="Times,serif" font-size="14.00"> 8</text>
</a>
</g>
</g>
</g>
</g></svg>
