<?xml version="1.0" encoding="UTF-8" standalone="no"?>
<!DOCTYPE svg PUBLIC "-//W3C//DTD SVG 1.1//EN"
 "http://www.w3.org/Graphics/SVG/1.1/DTD/svg11.dtd">
<!-- Generated by graphviz version 2.38.0 (20140413.2041)
 -->
<!-- Title: simple&#45;chat Pages: 1 -->
<svg width="100%" height="100%" xmlns="http://www.w3.org/2000/svg" xmlns:xlink="http://www.w3.org/1999/xlink">
<script xlink:href="https://www.cyberz.org/projects/SVGPan/SVGPan.js"/><g id="viewport" transform="scale(0.5,0.5) translate(0,0)"><g id="graph0" class="graph" transform="scale(1 1) rotate(0) translate(4 583)">
<title>simple&#45;chat</title>
<polygon fill="white" stroke="none" points="-4,4 -4,-583 1001.95,-583 1001.95,4 -4,4"/>
<g id="clust1" class="cluster"><title>cluster_L</title>
<polygon fill="none" stroke="black" points="8,-387 8,-571 550,-571 550,-387 8,-387"/>
</g>
<!-- L -->
<g id="node1" class="node"><title>L</title>
<polygon fill="#f8f8f8" stroke="black" points="542.188,-563 15.8125,-563 15.8125,-395 542.188,-395 542.188,-563"/>
<text text-anchor="start" x="23.9062" y="-533.4" font-family="Times,serif" font-size="32.00">File: simple&#45;chat</text>
<text text-anchor="start" x="23.9062" y="-501.4" font-family="Times,serif" font-size="32.00">Type: inuse_space</text>
<text text-anchor="start" x="23.9062" y="-469.4" font-family="Times,serif" font-size="32.00">Time: Aug 14, 2015 at 6:29pm (KST)</text>
<text text-anchor="start" x="23.9062" y="-437.4" font-family="Times,serif" font-size="32.00">1537.45kB of 1537.45kB total ( &#160;100%)</text>
<text text-anchor="start" x="23.9062" y="-405.4" font-family="Times,serif" font-size="32.00">Dropped 3 nodes (cum &lt;= 7.69kB)</text>
</g>
<!-- N1 -->
<g id="node2" class="node"><title>N1</title>
<g id="a_node2"><a xlink:title="encoding/gob.encComplex64Array (512.75kB)">
<polygon fill="#f8f8f8" stroke="black" points="611.91,-142 258.09,-142 258.09,-86 611.91,-86 611.91,-142"/>
<text text-anchor="middle" x="435" y="-118.8" font-family="Times,serif" font-size="24.00">encoding/gob.encComplex64Array</text>
<text text-anchor="middle" x="435" y="-94.8" font-family="Times,serif" font-size="24.00">512.75kB(33.35%)</text>
</a>
</g>
</g>
<!-- NN1_0 -->
<g id="node3" class="node"><title>NN1_0</title>
<g id="a_node3"><a xlink:title="512.75kB">
<polygon fill="#f8f8f8" stroke="black" points="462,-36 412,-36 408,-32 408,-0 458,-0 462,-4 462,-36"/>
<polyline fill="none" stroke="black" points="458,-32 408,-32 "/>
<polyline fill="none" stroke="black" points="458,-32 458,-0 "/>
<polyline fill="none" stroke="black" points="458,-32 462,-36 "/>
<text text-anchor="middle" x="435" y="-15.6" font-family="Times,serif" font-size="8.00">1.50kB</text>
</a>
</g>
</g>
<!-- N1&#45;&gt;NN1_0 -->
<g id="edge1" class="edge"><title>N1&#45;&gt;NN1_0</title>
<g id="a_edge1"><a xlink:title=" 512.75kB">
<path fill="none" stroke="black" d="M435,-85.8113C435,-73.3978 435,-58.7275 435,-46.3005"/>
<polygon fill="black" stroke="black" points="438.5,-46.0703 435,-36.0704 431.5,-46.0704 438.5,-46.0703"/>
</a>
</g>
<g id="a_edge1&#45;label"><a xlink:title=" 512.75kB">
<text text-anchor="middle" x="464.169" y="-56.8" font-family="Times,serif" font-size="14.00"> 512.75kB</text>
</a>
</g>
</g>
<!-- N2 -->
<g id="node4" class="node"><title>N2</title>
<g id="a_node4"><a xlink:title="[simple&#45;chat] (1537.45kB)">
<polygon fill="#f8f8f8" stroke="black" points="723.977,-345 504.023,-345 504.023,-265 723.977,-265 723.977,-345"/>
<text text-anchor="middle" x="614" y="-321.8" font-family="Times,serif" font-size="24.00">[simple&#45;chat]</text>
<text text-anchor="middle" x="614" y="-297.8" font-family="Times,serif" font-size="24.00">512.56kB(33.34%)</text>
<text text-anchor="middle" x="614" y="-273.8" font-family="Times,serif" font-size="24.00">of 1537.45kB(100%)</text>
</a>
</g>
</g>
<!-- N2&#45;&gt;N1 -->
<g id="edge5" class="edge"><title>N2&#45;&gt;N1</title>
<g id="a_edge5"><a xlink:title="[simple&#45;chat] &#45;&gt; encoding/gob.encComplex64Array (512.75kB)">
<path fill="none" stroke="black" stroke-width="2" d="M570.282,-264.668C554.002,-249.529 535.615,-231.834 519.662,-215 499.859,-194.103 478.944,-169.426 462.856,-149.815"/>
<polygon fill="black" stroke="black" stroke-width="2" points="465.531,-147.557 456.497,-142.021 460.107,-151.982 465.531,-147.557"/>
</a>
</g>
<g id="a_edge5&#45;label"><a xlink:title="[simple&#45;chat] &#45;&gt; encoding/gob.encComplex64Array (512.75kB)">
<text text-anchor="middle" x="549.169" y="-192.8" font-family="Times,serif" font-size="14.00"> 512.75kB</text>
</a>
</g>
</g>
<!-- NN2_0 -->
<g id="node5" class="node"><title>NN2_0</title>
<g id="a_node5"><a xlink:title="512.56kB">
<polygon fill="#f8f8f8" stroke="black" points="641,-215 591,-215 587,-211 587,-179 637,-179 641,-183 641,-215"/>
<polyline fill="none" stroke="black" points="637,-211 587,-211 "/>
<polyline fill="none" stroke="black" points="637,-211 637,-179 "/>
<polyline fill="none" stroke="black" points="637,-211 641,-215 "/>
<text text-anchor="middle" x="614" y="-194.6" font-family="Times,serif" font-size="8.00">1.12kB</text>
</a>
</g>
</g>
<!-- N2&#45;&gt;NN2_0 -->
<g id="edge2" class="edge"><title>N2&#45;&gt;NN2_0</title>
<g id="a_edge2"><a xlink:title=" 512.56kB">
<path fill="none" stroke="black" d="M614,-264.831C614,-251.736 614,-237.431 614,-225.427"/>
<polygon fill="black" stroke="black" points="617.5,-225.151 614,-215.151 610.5,-225.151 617.5,-225.151"/>
</a>
</g>
<g id="a_edge2&#45;label"><a xlink:title=" 512.56kB">
<text text-anchor="middle" x="643.169" y="-235.8" font-family="Times,serif" font-size="14.00"> 512.56kB</text>
</a>
</g>
</g>
<!-- N3 -->
<g id="node6" class="node"><title>N3</title>
<g id="a_node6"><a xlink:title="encoding/gob.(*Decoder).typeString (512.14kB)">
<polygon fill="#f8f8f8" stroke="black" points="997.902,-142 630.098,-142 630.098,-86 997.902,-86 997.902,-142"/>
<text text-anchor="middle" x="814" y="-118.8" font-family="Times,serif" font-size="24.00">encoding/gob.(*Decoder).typeString</text>
<text text-anchor="middle" x="814" y="-94.8" font-family="Times,serif" font-size="24.00">512.14kB(33.31%)</text>
</a>
</g>
</g>
<!-- N2&#45;&gt;N3 -->
<g id="edge6" class="edge"><title>N2&#45;&gt;N3</title>
<g id="a_edge6"><a xlink:title="[simple&#45;chat] &#45;&gt; encoding/gob.(*Decoder).typeString (512.14kB)">
<path fill="none" stroke="black" stroke-width="2" d="M656.793,-264.862C663.249,-258.899 669.814,-252.801 676,-247 711.037,-214.143 750.616,-176.199 778.374,-149.449"/>
<polygon fill="black" stroke="black" stroke-width="2" points="781.107,-151.675 785.876,-142.214 776.248,-146.637 781.107,-151.675"/>
</a>
</g>
<g id="a_edge6&#45;label"><a xlink:title="[simple&#45;chat] &#45;&gt; encoding/gob.(*Decoder).typeString (512.14kB)">
<text text-anchor="middle" x="776.169" y="-192.8" font-family="Times,serif" font-size="14.00"> 512.14kB</text>
</a>
</g>
</g>
<!-- NN3_0 -->
<g id="node7" class="node"><title>NN3_0</title>
<g id="a_node7"><a xlink:title="512.14kB">
<polygon fill="#f8f8f8" stroke="black" points="841,-36 791,-36 787,-32 787,-0 837,-0 841,-4 841,-36"/>
<polyline fill="none" stroke="black" points="837,-32 787,-32 "/>
<polyline fill="none" stroke="black" points="837,-32 837,-0 "/>
<polyline fill="none" stroke="black" points="837,-32 841,-36 "/>
<text text-anchor="middle" x="814" y="-15.6" font-family="Times,serif" font-size="8.00">288B</text>
</a>
</g>
</g>
<!-- N3&#45;&gt;NN3_0 -->
<g id="edge3" class="edge"><title>N3&#45;&gt;NN3_0</title>
<g id="a_edge3"><a xlink:title=" 512.14kB">
<path fill="none" stroke="black" d="M814,-85.8113C814,-73.3978 814,-58.7275 814,-46.3005"/>
<polygon fill="black" stroke="black" points="817.5,-46.0703 814,-36.0704 810.5,-46.0704 817.5,-46.0703"/>
</a>
</g>
<g id="a_edge3&#45;label"><a xlink:title=" 512.14kB">
<text text-anchor="middle" x="843.169" y="-56.8" font-family="Times,serif" font-size="14.00"> 512.14kB</text>
</a>
</g>
</g>
<!-- N4 -->
<g id="node8" class="node"><title>N4</title>
<g id="a_node8"><a xlink:title="encoding/gob.buildTypeInfo (1025.31kB)">
<polygon fill="#f8f8f8" stroke="black" points="667.699,-497 560.301,-497 560.301,-461 667.699,-461 667.699,-497"/>
<text text-anchor="middle" x="614" y="-480.6" font-family="Times,serif" font-size="8.00">encoding/gob.buildTypeInfo</text>
<text text-anchor="middle" x="614" y="-472.6" font-family="Times,serif" font-size="8.00">0 of 1025.31kB(66.69%)</text>
</a>
</g>
</g>
<!-- N4&#45;&gt;N2 -->
<g id="edge4" class="edge"><title>N4&#45;&gt;N2</title>
<g id="a_edge4"><a xlink:title="encoding/gob.buildTypeInfo &#45;&gt; [simple&#45;chat] (1025.31kB)">
<path fill="none" stroke="black" stroke-width="4" d="M614,-460.879C614,-436.518 614,-390.876 614,-355.425"/>
<polygon fill="black" stroke="black" stroke-width="4" points="617.5,-355.255 614,-345.255 610.5,-355.255 617.5,-355.255"/>
</a>
</g>
<g id="a_edge4&#45;label"><a xlink:title="encoding/gob.buildTypeInfo &#45;&gt; [simple&#45;chat] (1025.31kB)">
<text text-anchor="middle" x="646.669" y="-365.8" font-family="Times,serif" font-size="14.00"> 1025.31kB</text>
</a>
</g>
</g>
<!-- N5 -->
<g id="node9" class="node"><title>N5</title>
<g id="a_node9"><a xlink:title="encoding/gob.newTypeObject (512.14kB)">
<polygon fill="#f8f8f8" stroke="black" points="798.078,-497 685.922,-497 685.922,-461 798.078,-461 798.078,-497"/>
<text text-anchor="middle" x="742" y="-480.6" font-family="Times,serif" font-size="8.00">encoding/gob.newTypeObject</text>
<text text-anchor="middle" x="742" y="-472.6" font-family="Times,serif" font-size="8.00">0 of 512.14kB(33.31%)</text>
</a>
</g>
</g>
<!-- N5&#45;&gt;N2 -->
<g id="edge7" class="edge"><title>N5&#45;&gt;N2</title>
<g id="a_edge7"><a xlink:title="encoding/gob.newTypeObject &#45;&gt; [simple&#45;chat] (512.14kB)">
<path fill="none" stroke="black" stroke-width="2" d="M735.722,-460.748C726.565,-437.079 707.887,-393.954 683,-363 680.052,-359.333 676.836,-355.736 673.456,-352.244"/>
<polygon fill="black" stroke="black" stroke-width="2" points="675.909,-349.747 666.323,-345.234 671.002,-354.74 675.909,-349.747"/>
</a>
</g>
<g id="a_edge7&#45;label"><a xlink:title="encoding/gob.newTypeObject &#45;&gt; [simple&#45;chat] (512.14kB)">
<text text-anchor="middle" x="721.169" y="-365.8" font-family="Times,serif" font-size="14.00"> 512.14kB</text>
</a>
</g>
</g>
</g>
</g></svg>
